<svg preserveAspectRatio="none" overflow="visible" style="display: block;" width="19.0118" height="22" viewBox="0 0 19.0118 22" fill="none" xmlns="http://www.w3.org/2000/svg">
<g id="Margin">
<path id="Icon" d="M3 22V17.7C2.05 16.8333 1.3125 15.8208 0.7875 14.6625C0.2625 13.5042 0 12.2833 0 11C0 8.5 0.875 6.375 2.625 4.625C4.375 2.875 6.5 2 9 2C11.0833 2 12.9292 2.6125 14.5375 3.8375C16.1458 5.0625 17.1917 6.65833 17.675 8.625L18.975 13.75C19.0583 14.0667 19 14.3542 18.8 14.6125C18.6 14.8708 18.3333 15 18 15H16V18C16 18.55 15.8042 19.0208 15.4125 19.4125C15.0208 19.8042 14.55 20 14 20H12V22H10V18H14V18V18V13H16.7L15.75 9.125C15.3667 7.60833 14.55 6.375 13.3 5.425C12.05 4.475 10.6167 4 9 4C7.06667 4 5.41667 4.675 4.05 6.025C2.68333 7.375 2 9.01667 2 10.95C2 11.95 2.20417 12.9 2.6125 13.8C3.02083 14.7 3.6 15.5 4.35 16.2L5 16.8V22H3V22M9.35 13V13V13V13V13V13V13V13V13V13V13V13V13V13V13V13V13V13M8 15H10L10.15 13.75C10.2833 13.7 10.4042 13.6417 10.5125 13.575C10.6208 13.5083 10.7167 13.4333 10.8 13.35L11.95 13.85L12.95 12.15L11.95 11.4C11.9833 11.2667 12 11.1333 12 11C12 10.8667 11.9833 10.7333 11.95 10.6L12.95 9.85L11.95 8.15L10.8 8.65C10.7167 8.56667 10.6208 8.49167 10.5125 8.425C10.4042 8.35833 10.2833 8.3 10.15 8.25L10 7H8L7.85 8.25C7.71667 8.3 7.59583 8.35833 7.4875 8.425C7.37917 8.49167 7.28333 8.56667 7.2 8.65L6.05 8.15L5.05 9.85L6.05 10.6C6.01667 10.7333 6 10.8667 6 11C6 11.1333 6.01667 11.2667 6.05 11.4L5.05 12.15L6.05 13.85L7.2 13.35C7.28333 13.4333 7.37917 13.5083 7.4875 13.575C7.59583 13.6417 7.71667 13.7 7.85 13.75L8 15V15M9 12.5C8.58333 12.5 8.22917 12.3542 7.9375 12.0625C7.64583 11.7708 7.5 11.4167 7.5 11C7.5 10.5833 7.64583 10.2292 7.9375 9.9375C8.22917 9.64583 8.58333 9.5 9 9.5C9.41667 9.5 9.77083 9.64583 10.0625 9.9375C10.3542 10.2292 10.5 10.5833 10.5 11C10.5 11.4167 10.3542 11.7708 10.0625 12.0625C9.77083 12.3542 9.41667 12.5 9 12.5V12.5" fill="#0046D2"/>
</g>
</svg>
